<?xml version="1.0" encoding="UTF-8" standalone="no"?>
<svg width="16px" height="16px" viewBox="0 0 16 16" version="1.1" xmlns="http://www.w3.org/2000/svg" xmlns:xlink="http://www.w3.org/1999/xlink">
    <g id="Page-1" stroke="none" stroke-width="1" fill="none" fill-rule="evenodd">
        <g id="search" transform="translate(8.000000, 8.000000) scale(-1, 1) translate(-8.000000, -8.000000) " fill="#666666" fill-rule="nonzero">
            <path d="M15.7,14.3 L11.5,10.1 C11.3,9.9 11,9.8 10.7,9.8 C11.5,8.8 12,7.4 12,6 C12,2.7 9.3,8.8817842e-16 6,8.8817842e-16 C2.7,8.8817842e-16 0,2.7 0,6 C0,9.3 2.7,12 6,12 C7.4,12 8.8,11.5 9.8,10.6 C9.8,10.9 9.8,11.2 10.1,11.4 L14.3,15.6 C14.5,15.8 14.8,15.9 15,15.9 C15.2,15.9 15.5,15.8 15.7,15.6 C16.1,15.3 16.1,14.7 15.7,14.3 Z M6,10.5 C3.5,10.5 1.5,8.5 1.5,6 C1.5,3.5 3.5,1.5 6,1.5 C8.5,1.5 10.5,3.5 10.5,6 C10.5,8.5 8.5,10.5 6,10.5 Z" id="Shape"></path>
        </g>
    </g>
</svg>